<svg width="32.000000" height="32.000000" viewBox="0 0 32 32" fill="none" xmlns="http://www.w3.org/2000/svg" xmlns:xlink="http://www.w3.org/1999/xlink">
	<desc>
			Created with Pixso.
	</desc>
	<defs>
		<filter id="filter_0_15_dd" x="0.000000" y="0.000000" width="32.000000" height="32.000000" filterUnits="userSpaceOnUse" color-interpolation-filters="sRGB">
			<feFlood flood-opacity="0" result="BackgroundImageFix"/>
			<feColorMatrix in="SourceAlpha" type="matrix" values="0 0 0 0 0 0 0 0 0 0 0 0 0 0 0 0 0 0 127 0" result="hardAlpha"/>
			<feOffset dx="0" dy="4"/>
			<feGaussianBlur stdDeviation="1.33333"/>
			<feComposite in2="hardAlpha" operator="out" k2="-1" k3="1"/>
			<feColorMatrix type="matrix" values="0 0 0 0 0 0 0 0 0 0 0 0 0 0 0 0 0 0 0.25 0"/>
			<feBlend mode="normal" in2="BackgroundImageFix" result="effect_dropShadow_1"/>
			<feBlend mode="normal" in="SourceGraphic" in2="effect_dropShadow_1" result="shape"/>
		</filter>
	</defs>
	<g filter="url(#filter_0_15_dd)">
		<rect id="Frame 4815" width="24.000000" height="24.000000" transform="translate(4.000000 0.000000)" fill="#FFFFFF" fill-opacity="0"/>
		<path id="Union" d="M19.8 15.8C16.87 18.73 12.12 18.73 9.19 15.8C6.26 12.87 6.26 8.12 9.19 5.19C12.12 2.26 16.87 2.26 19.8 5.19C22.73 8.12 22.73 12.87 19.8 15.8ZM20.14 16.85C16.8 19.82 11.69 19.71 8.48 16.51C5.17 13.19 5.17 7.8 8.48 4.48C11.8 1.17 17.19 1.17 20.51 4.48C23.71 7.69 23.82 12.8 20.85 16.14L25.46 20.75C25.65 20.95 25.65 21.26 25.46 21.46C25.26 21.65 24.94 21.65 24.75 21.46L20.14 16.85Z" fill="#432EAB" fill-opacity="1.000000" fill-rule="evenodd"/>
	</g>
</svg>
